<svg width="82" height="82" viewBox="0 0 82 82" fill="none" xmlns="http://www.w3.org/2000/svg">
<rect width="82" height="82" rx="41" fill="#D8D8FD"/>
<path d="M46.3335 49.0001C47.8063 49.0001 49.0002 50.194 49.0002 51.6668C49.0002 53.1396 47.8063 54.3335 46.3335 54.3335C44.8607 54.3335 43.6668 53.1396 43.6668 51.6668C43.6668 50.194 44.8607 49.0001 46.3335 49.0001ZM46.3335 50.3335C45.5971 50.3335 45.0002 50.9304 45.0002 51.6668C45.0002 52.4032 45.5971 53.0001 46.3335 53.0001C47.0699 53.0001 47.6668 52.4032 47.6668 51.6668C47.6668 50.9304 47.0699 50.3335 46.3335 50.3335ZM34.3335 49.0001C35.8063 49.0001 37.0002 50.194 37.0002 51.6668C37.0002 53.1396 35.8063 54.3335 34.3335 54.3335C32.8607 54.3335 31.6668 53.1396 31.6668 51.6668C31.6668 50.194 32.8607 49.0001 34.3335 49.0001ZM34.3335 50.3335C33.5971 50.3335 33.0002 50.9304 33.0002 51.6668C33.0002 52.4032 33.5971 53.0001 34.3335 53.0001C35.0699 53.0001 35.6668 52.4032 35.6668 51.6668C35.6668 50.9304 35.0699 50.3335 34.3335 50.3335ZM49.0002 33.0002H30.6981L34.0938 41.0002H45.0002C45.4374 41.0002 45.8255 40.7898 46.0674 40.4636L50.0672 35.1303L50.0686 35.1313C50.235 34.9088 50.3335 34.6327 50.3335 34.3335C50.3335 33.5971 49.7366 33.0002 49.0002 33.0002ZM45.0002 42.3335H34.1542L33.1353 44.4145L33.0002 45.0002C33.0002 45.7365 33.5971 46.3335 34.3335 46.3335H49.0002V47.6668H34.3335C32.8607 47.6668 31.6668 46.4729 31.6668 45.0002C31.6668 44.5311 31.788 44.0902 32.0007 43.7072L32.9598 41.7408L28.1176 30.3335H26.3335V29.0002L29.0001 29.0002L30.1321 31.6668H49.0002C50.473 31.6668 51.6668 32.8607 51.6668 34.3335C51.6668 34.9701 51.4438 35.5547 51.0715 36.0132L47.1858 41.1951C46.7036 41.8834 45.9044 42.3335 45.0002 42.3335Z" fill="#0C0C31"/>
</svg>
