<svg width="59" height="56" viewBox="0 0 59 56" fill="none" xmlns="http://www.w3.org/2000/svg">
<rect y="-1.5" width="59" height="59" rx="29.5" fill="#F5F5FE"/>
<path d="M35 33.5C36.1046 33.5 37 34.3954 37 35.5C37 36.6046 36.1046 37.5 35 37.5C33.8954 37.5 33 36.6046 33 35.5C33 34.3954 33.8954 33.5 35 33.5ZM35 34.5C34.4477 34.5 34 34.9477 34 35.5C34 36.0523 34.4477 36.5 35 36.5C35.5523 36.5 36 36.0523 36 35.5C36 34.9477 35.5523 34.5 35 34.5ZM26 33.5C27.1046 33.5 28 34.3954 28 35.5C28 36.6046 27.1046 37.5 26 37.5C24.8954 37.5 24 36.6046 24 35.5C24 34.3954 24.8954 33.5 26 33.5ZM26 34.5C25.4477 34.5 25 34.9477 25 35.5C25 36.0523 25.4477 36.5 26 36.5C26.5523 36.5 27 36.0523 27 35.5C27 34.9477 26.5523 34.5 26 34.5ZM37 21.5H23.2734L25.8203 27.5H34C34.3279 27.5 34.619 27.3422 34.8004 27.0976L37.8003 23.0976L37.8013 23.0983C37.9261 22.9315 38 22.7244 38 22.5C38 21.9477 37.5523 21.5 37 21.5ZM34 28.5H25.8655L25.1014 30.0608L25 30.5C25 31.0523 25.4477 31.5 26 31.5H37V32.5H26C24.8954 32.5 24 31.6046 24 30.5C24 30.1482 24.0909 29.8175 24.2504 29.5303L24.9697 28.0555L21.3381 19.5H20V18.5L22 18.5L22.8489 20.5H37C38.1046 20.5 39 21.3954 39 22.5C39 22.9775 38.8327 23.4159 38.5535 23.7598L35.6392 27.6462C35.2776 28.1624 34.6782 28.5 34 28.5Z" fill="#0C0C31"/>
</svg>
