<svg width="24" height="24" viewBox="0 0 24 24" fill="none" xmlns="http://www.w3.org/2000/svg">
<path d="M16 18.0001C17.1046 18.0001 18 18.8955 18 20.0001C18 21.1047 17.1046 22.0001 16 22.0001C14.8954 22.0001 14 21.1047 14 20.0001C14 18.8955 14.8954 18.0001 16 18.0001ZM16 19.0001C15.4477 19.0001 15 19.4478 15 20.0001C15 20.5524 15.4477 21.0001 16 21.0001C16.5523 21.0001 17 20.5524 17 20.0001C17 19.4478 16.5523 19.0001 16 19.0001ZM7 18.0001C8.10457 18.0001 9 18.8955 9 20.0001C9 21.1047 8.10457 22.0001 7 22.0001C5.89543 22.0001 5 21.1047 5 20.0001C5 18.8955 5.89543 18.0001 7 18.0001ZM7 19.0001C6.44771 19.0001 6 19.4478 6 20.0001C6 20.5524 6.44771 21.0001 7 21.0001C7.55228 21.0001 8 20.5524 8 20.0001C8 19.4478 7.55228 19.0001 7 19.0001ZM18 6.00012H4.27342L6.82026 12.0001H15C15.3279 12.0001 15.619 11.8423 15.8004 11.5977L18.8003 7.5977L18.8013 7.59846C18.9261 7.43161 19 7.2245 19 7.00013C19 6.44784 18.5523 6.00012 18 6.00012ZM15 13.0001H6.8655L6.10138 14.5609L6 15.0001C6 15.5524 6.44771 16.0001 7 16.0001H18V17.0001H7C5.89543 17.0001 5 16.1047 5 15.0001C5 14.6483 5.09086 14.3176 5.25038 14.0304L5.9697 12.5556L2.33811 4.00012H1V3.00012L2.99999 3.00013L3.84894 5.00012H18C19.1046 5.00013 20 5.89556 20 7.00013C20 7.47761 19.8327 7.91601 19.5535 8.25989L16.6392 12.1463C16.2776 12.6625 15.6782 13.0001 15 13.0001Z" fill="#0C0C31"/>
</svg>
