<svg width="99" height="85" viewBox="0 0 99 85" fill="none" xmlns="http://www.w3.org/2000/svg">
<g clip-path="url(#clip0_180_9693)">
<path d="M40.1745 56.8638C39.444 57.4695 38.6982 56.765 38.6982 56.765C38.6982 56.765 26.1653 45.5466 25.3587 45.0528C24.2172 44.3484 21.7822 43.2555 19.3851 45.4413C18.3883 46.3498 16.7598 48.3644 19.8722 51.5508C20.5418 52.2355 40.0604 69.6161 41.1942 70.551C41.1942 70.551 50.2039 77.9575 55.6219 80.7226C57.1286 81.4929 58.818 82.3027 60.7889 82.8623C62.7521 83.4219 64.9665 83.7971 67.295 83.7774C69.6236 83.7774 72.0358 83.3626 74.3111 82.6187C76.5863 81.8682 78.7018 80.7819 80.6194 79.5376C81.0912 79.2216 81.563 78.899 82.012 78.5632L83.298 77.6218C84.1959 76.9568 85.0254 76.2655 85.8244 75.5479C87.43 74.1259 88.8758 72.6182 90.1466 71.0711C91.4098 69.5174 92.4827 67.911 93.3274 66.3178C94.1721 64.7245 94.7656 63.1247 95.108 61.6105C95.4733 60.1029 95.5646 58.6808 95.4885 57.4497C95.4581 56.212 95.1613 55.152 94.9102 54.3093C94.6286 53.4666 94.3395 52.8346 94.1036 52.4199C93.8753 52.0051 93.7535 51.7813 93.7535 51.7813C93.4339 51.0373 93.1372 50.3263 92.8556 49.6877C92.0947 47.8838 91.2196 45.856 90.3064 43.7756C89.9183 42.8934 89.7433 42.4918 89.7433 42.4918L89.7509 42.505C86.4027 34.9142 82.8034 27.0863 82.8034 27.0863C82.2555 25.7103 80.3074 25.2429 78.8768 26.1514C74.7753 28.7651 73.5577 32.5309 75.072 36.5205L78.9377 45.3557C79.478 46.3432 78.0398 47.5019 77.0505 46.8238C73.9458 44.6908 67.3635 38.7853 67.3635 38.7853C64.4262 36.402 47.8373 22.0301 46.7187 21.1545C44.4891 19.3967 41.6888 18.5079 39.581 19.8839C37.4351 21.2796 36.8567 23.4192 38.9798 25.7235C39.5581 26.3489 56.3296 41.3265 56.3296 41.3265C57.3113 42.1956 56.1851 43.4399 55.1121 42.6038C55.1121 42.6038 34.2466 24.2093 33.3031 23.3468C31.1648 21.3915 27.7709 20.9899 25.7848 22.6358C23.8443 24.2488 23.9281 26.8624 26.0968 28.8902C26.7893 29.5354 41.4834 42.6498 47.3732 48.022C47.7689 48.3841 48.0732 48.8647 47.5101 49.3322C47.5025 49.3387 46.9318 49.8918 46.1709 49.2005C44.5728 47.7587 28.6003 33.6962 27.71 32.9325C25.6706 31.1879 22.954 30.3781 20.8081 32.1227C18.8449 33.7159 18.5633 36.4547 20.869 38.3705L40.2202 55.659C40.2354 55.6656 40.8594 56.2976 40.1745 56.8638Z" fill="#FAC036"/>
<path d="M33.0147 52.703C32.619 53.5062 31.6069 53.1046 31.6069 53.1046C31.6069 53.1046 15.018 46.9884 14.0516 46.8041C12.6819 46.5407 9.95006 46.3564 8.72492 49.1742C8.21508 50.3461 7.62153 52.7491 11.9209 54.6385C12.8493 55.0467 38.6382 64.481 40.1068 64.9682C40.1068 64.9682 51.7343 68.7603 57.9741 69.4779C59.7091 69.6754 61.6343 69.8597 63.6965 69.7083C65.7587 69.5635 67.9655 69.1685 70.0962 68.3587C72.2421 67.5752 74.2738 66.377 76.0316 64.9287C77.7895 63.4737 79.2505 61.762 80.4528 59.9712C80.7496 59.5235 81.0387 59.0693 81.2975 58.6084L82.066 57.3115C82.5911 56.3964 83.0477 55.4746 83.4662 54.5529C84.3109 52.703 84.9577 50.8267 85.4371 48.9701C85.9013 47.1135 86.1676 45.2767 86.2285 43.5189C86.2893 41.7611 86.1143 40.0889 85.7567 38.5812C85.4219 37.067 84.8587 35.7305 84.2348 34.6179C83.6488 33.4855 82.8955 32.6165 82.2943 31.9186C81.6551 31.2405 81.1072 30.7534 80.7039 30.4505C80.3082 30.1477 80.0951 29.9831 80.0951 29.9831C79.4712 29.4037 78.87 28.8507 78.3297 28.3569C76.8154 26.9481 75.0957 25.3812 73.3226 23.7748C72.5693 23.0901 72.2268 22.7872 72.2268 22.7872L72.2421 22.8004C65.7359 16.9344 58.9025 10.9368 58.9025 10.9368C57.7839 9.85053 55.7749 10.081 54.8694 11.3977C52.2669 15.1898 52.8376 19.0609 56.0261 22.2276L63.5595 29.068C64.5031 29.7922 63.6965 31.3459 62.479 31.0562C58.659 30.1345 49.946 26.9086 49.946 26.9086C46.164 25.7038 24.4159 18.0471 22.9929 17.6126C20.1469 16.7435 17.1716 16.8686 15.8475 18.8437C14.5006 20.8517 14.9267 23.0177 17.9249 24.4265C18.7391 24.8084 40.921 32.9588 40.921 32.9588C42.2147 33.4263 41.7353 34.9537 40.3732 34.5455C40.3732 34.5455 12.8797 24.6241 11.6242 24.1435C8.77819 23.0572 5.46802 23.834 4.37985 26.0198C3.32212 28.1594 4.5777 30.5427 7.48456 31.6751C8.40532 32.0371 27.8478 39.1737 35.6857 42.1363C36.2107 42.3339 36.7053 42.6762 36.401 43.3016C36.401 43.3082 36.1194 44.0127 35.1073 43.6308C32.9843 42.8408 11.9514 35.2565 10.7871 34.8549C8.12376 33.9332 5.26256 34.1044 4.06025 36.4284C2.96447 38.5549 3.93849 41.1751 6.92145 42.1627L32.5201 51.5772C32.5201 51.5772 33.3876 51.9524 33.0147 52.703Z" fill="#FAC036"/>
<path d="M77.9718 42.7354C78.8317 44.4603 80.2014 45.7112 78.1545 46.995C75.3694 48.7396 69.6698 42.7618 67.3869 40.7538C64.5485 38.2454 61.7863 35.5923 58.8946 33.1168C54.9605 29.7395 49.5653 25.1573 45.7224 21.6878C41.2708 17.6718 36.8192 22.4646 38.9271 26.1909C39.1249 26.5596 39.4141 26.9217 39.787 27.3035C40.9284 28.4293 42.1612 29.4761 43.3711 30.5492C43.3863 30.5624 52.845 38.3969 55.9421 41.1027C57.3499 42.3668 56.5889 43.9271 55.691 43.2226C54.7931 42.5182 48.7206 37.8241 45.966 35.3948C41.6361 31.5763 36.1115 26.8098 31.1653 23.2481C28.365 21.2269 21.7827 25.3219 27.9921 30.5953C28.228 30.7994 46.5443 46.3301 48.8652 48.3117C49.6185 48.9503 48.4086 49.6218 48.4086 49.6218C47.9064 50.0037 28.1748 33.8147 27.4366 33.1761C23.3959 29.6671 16.4408 34.0056 22.1328 39.0289C24.2102 40.8591 30.7925 46.7119 35.069 50.537C36.4844 51.8076 39.962 54.5332 42.047 56.1067C42.4808 56.4358 41.4154 56.8243 41.1567 57.1271C40.7762 57.5814 26.6148 46.4881 25.1538 45.4742C21.9045 43.2226 16.2734 47.1859 19.5759 50.9978C21.2729 52.9531 33.0677 62.6046 34.7723 64.0069C43.6222 71.2818 45.3191 73.0857 56.0867 79.6758C57.4564 80.5185 61.3601 83.1256 60.2111 82.7043C45.0909 77.0951 31.7817 64.1123 20.276 55.0401C16.9126 52.3869 14.3253 47.4493 18.3051 44.1575C19.8727 42.8671 20.9457 42.5906 22.9774 42.6959C22.9774 42.6959 22.8557 42.5708 21.0826 40.9381C19.3705 39.3646 15.4287 34.6245 19.0889 31.5631C21.9653 29.1535 25.1842 30.2069 24.9407 29.9699C22.2089 27.1455 22.5437 24.0184 24.8722 22.1289C27.6725 19.851 31.4773 19.7522 36.4159 24.1632C36.1115 23.3732 35.4039 21.4244 37.7628 19.5744C42.3286 15.9798 46.1942 18.5606 54.892 26.6584C62.1211 33.367 73.33 43.2621 73.33 43.2621C73.9692 43.7559 75.6357 45.4874 76.6782 44.9409C77.287 44.6183 76.3282 43.6505 75.3237 41.6623C71.7168 34.5455 71.6407 28.3635 79.6992 25.8157C80.2167 25.4009 76.6402 28.1133 75.5596 31.1681C74.5171 34.1044 75.9933 38.7524 77.9718 42.7354Z" fill="#E48C15"/>
<path d="M77.8418 2.39111L72.9641 15.6307M33.1051 15.2817L24.9629 6.90086M40.943 2.39111L39.1395 14.6102M86.532 14.3995L77.1342 20.9304" stroke="#0C0C31" stroke-width="4" stroke-miterlimit="10" stroke-linecap="round"/>
</g>
<defs>
<clipPath id="clip0_180_9693">
<rect width="97.4026" height="84.2697" fill="white" transform="translate(0.772461 0.337158)"/>
</clipPath>
</defs>
</svg>
