<svg width="24" height="24" viewBox="0 0 24 24" fill="none" xmlns="http://www.w3.org/2000/svg">
<path d="M18 19.0001C18 20.657 16.6568 22.0001 15 22.0001H7.99999C6.34314 22.0001 5 20.657 5 19.0001L4.99999 7.00017L4 7.00015V4.00016L8.49999 4.00015L9.49999 3.00015L13.5 3.00016L14.5 4.00016H19V7.00015L18 7.00017V19.0001ZM5.99998 7.00017L5.99999 19.0001C5.99999 20.1047 6.89542 21.0001 7.99999 21.0001H15C16.1046 21.0001 17 20.1047 17 19.0001V7.00017H5.99998ZM18 6.00016V5.00016L14 5.00015L13 4.00015H10L8.99999 5.00015L4.99999 5.00016V6.00016H18ZM7.99999 9.00015H8.99999V19.0001H7.99999V9.00015ZM14 9.00015H15V19.0001H14V9.00015Z" fill="#0C0C31"/>
</svg>
