<svg width="59" height="59" viewBox="0 0 59 59" fill="none" xmlns="http://www.w3.org/2000/svg">
<rect width="59" height="59" rx="29.5" fill="#D8D8FD"/>
<path d="M35 35C36.1046 35 37 35.8954 37 37C37 38.1046 36.1046 39 35 39C33.8954 39 33 38.1046 33 37C33 35.8954 33.8954 35 35 35ZM35 36C34.4477 36 34 36.4477 34 37C34 37.5523 34.4477 38 35 38C35.5523 38 36 37.5523 36 37C36 36.4477 35.5523 36 35 36ZM26 35C27.1046 35 28 35.8954 28 37C28 38.1046 27.1046 39 26 39C24.8954 39 24 38.1046 24 37C24 35.8954 24.8954 35 26 35ZM26 36C25.4477 36 25 36.4477 25 37C25 37.5523 25.4477 38 26 38C26.5523 38 27 37.5523 27 37C27 36.4477 26.5523 36 26 36ZM37 23H23.2734L25.8203 29H34C34.3279 29 34.619 28.8422 34.8004 28.5976L37.8003 24.5976L37.8013 24.5983C37.9261 24.4315 38 24.2244 38 24C38 23.4477 37.5523 23 37 23ZM34 30H25.8655L25.1014 31.5608L25 32C25 32.5523 25.4477 33 26 33H37V34H26C24.8954 34 24 33.1046 24 32C24 31.6482 24.0909 31.3175 24.2504 31.0303L24.9697 29.5555L21.3381 21H20V20L22 20L22.8489 22H37C38.1046 22 39 22.8954 39 24C39 24.4775 38.8327 24.9159 38.5535 25.2598L35.6392 29.1462C35.2776 29.6624 34.6782 30 34 30Z" fill="#0C0C31"/>
</svg>
