<svg width="11" height="11" viewBox="0 0 11 11" fill="none" xmlns="http://www.w3.org/2000/svg">
<path d="M4.54167 0.33342C6.63578 0.33342 8.33333 2.03101 8.33333 4.12509C8.33333 5.06845 7.98882 5.93138 7.41873 6.59486L10.7112 9.88737L10.2988 10.2998L7.00584 7.00693C6.34312 7.57416 5.48241 7.91675 4.54167 7.91675C2.44759 7.91675 0.75 6.21919 0.75 4.12509C0.75 2.03101 2.44759 0.33342 4.54167 0.33342ZM4.54167 0.916753C2.76975 0.916753 1.33333 2.35317 1.33333 4.12509C1.33333 5.89702 2.76975 7.33342 4.54167 7.33342C6.3136 7.33342 7.75 5.89702 7.75 4.12509C7.75 2.35317 6.3136 0.916753 4.54167 0.916753Z" fill="#2C29AB"/>
</svg>
