<svg width="39" height="39" viewBox="0 0 39 39" fill="none" xmlns="http://www.w3.org/2000/svg">
<rect width="39" height="39" rx="19.5" fill="#F5F5FE"/>
<path d="M25 25C26.1046 25 27 25.8954 27 27C27 28.1046 26.1046 29 25 29C23.8954 29 23 28.1046 23 27C23 25.8954 23.8954 25 25 25ZM25 26C24.4477 26 24 26.4477 24 27C24 27.5523 24.4477 28 25 28C25.5523 28 26 27.5523 26 27C26 26.4477 25.5523 26 25 26ZM16 25C17.1046 25 18 25.8954 18 27C18 28.1046 17.1046 29 16 29C14.8954 29 14 28.1046 14 27C14 25.8954 14.8954 25 16 25ZM16 26C15.4477 26 15 26.4477 15 27C15 27.5523 15.4477 28 16 28C16.5523 28 17 27.5523 17 27C17 26.4477 16.5523 26 16 26ZM27 13H13.2734L15.8203 19H24C24.3279 19 24.619 18.8422 24.8004 18.5976L27.8003 14.5976L27.8013 14.5983C27.9261 14.4315 28 14.2244 28 14C28 13.4477 27.5523 13 27 13ZM24 20H15.8655L15.1014 21.5608L15 22C15 22.5523 15.4477 23 16 23H27V24H16C14.8954 24 14 23.1046 14 22C14 21.6482 14.0909 21.3175 14.2504 21.0303L14.9697 19.5555L11.3381 11H10V10L12 10L12.8489 12H27C28.1046 12 29 12.8954 29 14C29 14.4775 28.8327 14.9159 28.5535 15.2598L25.6392 19.1462C25.2776 19.6624 24.6782 20 24 20Z" fill="#0C0C31"/>
</svg>
