<svg width="24" height="24" viewBox="0 0 24 24" fill="none" xmlns="http://www.w3.org/2000/svg">
<path d="M12.0004 18C13.5917 18 15.1178 17.3679 16.243 16.2427C17.3682 15.1174 18.0004 13.5913 18.0004 12C18.0004 10.4087 17.3682 8.8826 16.243 7.75738C15.1178 6.63217 13.5917 6.00002 12.0004 6.00002C10.4091 6.00002 8.88297 6.63217 7.75775 7.75738C6.63253 8.8826 6.00039 10.4087 6.00039 12C6.00039 13.5913 6.63253 15.1174 7.75775 16.2427C8.88297 17.3679 10.4091 18 12.0004 18ZM12.0004 2.40002C9.45431 2.40002 7.01252 3.41145 5.21217 5.2118C3.41182 7.01215 2.40039 9.45395 2.40039 12C2.40039 14.5461 3.41182 16.9879 5.21217 18.7882C7.01252 20.5886 9.45431 21.6 12.0004 21.6C14.5465 21.6 16.9883 20.5886 18.7886 18.7882C20.589 16.9879 21.6004 14.5461 21.6004 12C21.6004 9.45395 20.589 7.01215 18.7886 5.2118C16.9883 3.41145 14.5465 2.40002 12.0004 2.40002ZM3.60039 12C3.60039 10.8969 3.81766 9.80462 4.2398 8.78548C4.66194 7.76635 5.28068 6.84034 6.06069 6.06033C6.84071 5.28032 7.76672 4.66158 8.78585 4.23944C9.80499 3.8173 10.8973 3.60002 12.0004 3.60002C13.1035 3.60002 14.1958 3.8173 15.2149 4.23944C16.2341 4.66158 17.1601 5.28032 17.9401 6.06033C18.7201 6.84034 19.3388 7.76635 19.761 8.78548C20.1831 9.80462 20.4004 10.8969 20.4004 12C20.4004 14.2278 19.5154 16.3644 17.9401 17.9397C16.3648 19.515 14.2282 20.4 12.0004 20.4C9.77257 20.4 7.636 19.515 6.06069 17.9397C4.48539 16.3644 3.60039 14.2278 3.60039 12Z" fill="#0C0C31"/>
</svg>
