<svg width="20" height="20" viewBox="0 0 20 20" fill="none" xmlns="http://www.w3.org/2000/svg">
<path d="M1.25 10C1.25 5.16751 5.16751 1.25 10 1.25C14.8325 1.25 18.75 5.16751 18.75 10C18.75 14.8325 14.8325 18.75 10 18.75C5.16751 18.75 1.25 14.8325 1.25 10Z" fill="#2C29AB"/>
<path d="M3.48438 6.09039V6.46273L4.84559 6.67705C5.81009 6.8289 6.58744 7.55386 6.81217 8.5111L8.40562 15.2984C8.44506 15.4664 8.59391 15.5851 8.76522 15.5851H11.0013C11.1488 15.5851 11.2822 15.4967 11.3406 15.3602L15.1978 6.3503C15.2504 6.22741 15.161 6.09039 15.0281 6.09039H12.9679C12.8192 6.09039 12.6849 6.18028 12.6273 6.31847L10.0434 12.5133L9.01262 7.0006C8.91392 6.47273 8.45632 6.09039 7.92323 6.09039H3.48438Z" fill="#F5F5FE"/>
</svg>
